<mxfile host="app.diagrams.net" agent="Mozilla/5.0 (Windows NT 10.0; Win64; x64; rv:134.0) Gecko/20100101 Firefox/134.0" version="26.0.16">
  <diagram name="Página-1" id="hsjouiUlsG6Za-TGBeIv">
    <mxGraphModel dx="2261" dy="3092" grid="1" gridSize="10" guides="1" tooltips="1" connect="1" arrows="1" fold="1" page="1" pageScale="1" pageWidth="827" pageHeight="1169" math="0" shadow="0">
      <root>
        <mxCell id="0" />
        <mxCell id="1" parent="0" />
        <mxCell id="Btvpl0j_3GmCOnRVqHgX-11" value="MediaController" style="swimlane;whiteSpace=wrap;html=1;" parent="1" vertex="1">
          <mxGeometry x="-770" y="-1250" width="190" height="70" as="geometry" />
        </mxCell>
        <mxCell id="Btvpl0j_3GmCOnRVqHgX-12" value="- Metodos de crud" style="text;strokeColor=none;fillColor=none;align=left;verticalAlign=middle;spacingLeft=4;spacingRight=4;overflow=hidden;points=[[0,0.5],[1,0.5]];portConstraint=eastwest;rotatable=0;whiteSpace=wrap;html=1;" parent="Btvpl0j_3GmCOnRVqHgX-11" vertex="1">
          <mxGeometry x="7" y="30" width="173" height="30" as="geometry" />
        </mxCell>
        <mxCell id="Btvpl0j_3GmCOnRVqHgX-13" value="ForoController" style="swimlane;whiteSpace=wrap;html=1;" parent="1" vertex="1">
          <mxGeometry x="-775" y="-920" width="190" height="70" as="geometry" />
        </mxCell>
        <mxCell id="Btvpl0j_3GmCOnRVqHgX-14" value="- Metodos de crud" style="text;strokeColor=none;fillColor=none;align=left;verticalAlign=middle;spacingLeft=4;spacingRight=4;overflow=hidden;points=[[0,0.5],[1,0.5]];portConstraint=eastwest;rotatable=0;whiteSpace=wrap;html=1;" parent="Btvpl0j_3GmCOnRVqHgX-13" vertex="1">
          <mxGeometry x="7" y="30" width="173" height="30" as="geometry" />
        </mxCell>
        <mxCell id="Btvpl0j_3GmCOnRVqHgX-15" value="ActorController" style="swimlane;whiteSpace=wrap;html=1;" parent="1" vertex="1">
          <mxGeometry x="-785" y="-250" width="190" height="70" as="geometry" />
        </mxCell>
        <mxCell id="Btvpl0j_3GmCOnRVqHgX-16" value="- Metodos de crud" style="text;strokeColor=none;fillColor=none;align=left;verticalAlign=middle;spacingLeft=4;spacingRight=4;overflow=hidden;points=[[0,0.5],[1,0.5]];portConstraint=eastwest;rotatable=0;whiteSpace=wrap;html=1;" parent="Btvpl0j_3GmCOnRVqHgX-15" vertex="1">
          <mxGeometry x="7" y="30" width="173" height="30" as="geometry" />
        </mxCell>
        <mxCell id="Btvpl0j_3GmCOnRVqHgX-17" value="UserController" style="swimlane;whiteSpace=wrap;html=1;" parent="1" vertex="1">
          <mxGeometry x="-785" y="-40" width="190" height="70" as="geometry" />
        </mxCell>
        <mxCell id="Btvpl0j_3GmCOnRVqHgX-18" value="- Metodos de crud" style="text;strokeColor=none;fillColor=none;align=left;verticalAlign=middle;spacingLeft=4;spacingRight=4;overflow=hidden;points=[[0,0.5],[1,0.5]];portConstraint=eastwest;rotatable=0;whiteSpace=wrap;html=1;" parent="Btvpl0j_3GmCOnRVqHgX-17" vertex="1">
          <mxGeometry x="7" y="30" width="173" height="30" as="geometry" />
        </mxCell>
        <mxCell id="Btvpl0j_3GmCOnRVqHgX-23" value="MediaApiController" style="swimlane;whiteSpace=wrap;html=1;" parent="1" vertex="1">
          <mxGeometry x="-270" y="-1250" width="190" height="70" as="geometry" />
        </mxCell>
        <mxCell id="Btvpl0j_3GmCOnRVqHgX-24" value="- Metodos de crud" style="text;strokeColor=none;fillColor=none;align=left;verticalAlign=middle;spacingLeft=4;spacingRight=4;overflow=hidden;points=[[0,0.5],[1,0.5]];portConstraint=eastwest;rotatable=0;whiteSpace=wrap;html=1;" parent="Btvpl0j_3GmCOnRVqHgX-23" vertex="1">
          <mxGeometry x="7" y="30" width="173" height="30" as="geometry" />
        </mxCell>
        <mxCell id="Btvpl0j_3GmCOnRVqHgX-25" value="ForoApiController" style="swimlane;whiteSpace=wrap;html=1;" parent="1" vertex="1">
          <mxGeometry x="-275" y="-920" width="190" height="70" as="geometry" />
        </mxCell>
        <mxCell id="Btvpl0j_3GmCOnRVqHgX-26" value="- Metodos de crud" style="text;strokeColor=none;fillColor=none;align=left;verticalAlign=middle;spacingLeft=4;spacingRight=4;overflow=hidden;points=[[0,0.5],[1,0.5]];portConstraint=eastwest;rotatable=0;whiteSpace=wrap;html=1;" parent="Btvpl0j_3GmCOnRVqHgX-25" vertex="1">
          <mxGeometry x="7" y="30" width="173" height="30" as="geometry" />
        </mxCell>
        <mxCell id="Btvpl0j_3GmCOnRVqHgX-27" value="ActorApiController" style="swimlane;whiteSpace=wrap;html=1;" parent="1" vertex="1">
          <mxGeometry x="-285" y="-250" width="190" height="70" as="geometry" />
        </mxCell>
        <mxCell id="Btvpl0j_3GmCOnRVqHgX-28" value="- Metodos de crud" style="text;strokeColor=none;fillColor=none;align=left;verticalAlign=middle;spacingLeft=4;spacingRight=4;overflow=hidden;points=[[0,0.5],[1,0.5]];portConstraint=eastwest;rotatable=0;whiteSpace=wrap;html=1;" parent="Btvpl0j_3GmCOnRVqHgX-27" vertex="1">
          <mxGeometry x="7" y="30" width="173" height="30" as="geometry" />
        </mxCell>
        <mxCell id="Btvpl0j_3GmCOnRVqHgX-29" value="UserApiController" style="swimlane;whiteSpace=wrap;html=1;" parent="1" vertex="1">
          <mxGeometry x="-285" y="-40" width="190" height="70" as="geometry" />
        </mxCell>
        <mxCell id="Btvpl0j_3GmCOnRVqHgX-30" value="- Metodos de crud" style="text;strokeColor=none;fillColor=none;align=left;verticalAlign=middle;spacingLeft=4;spacingRight=4;overflow=hidden;points=[[0,0.5],[1,0.5]];portConstraint=eastwest;rotatable=0;whiteSpace=wrap;html=1;" parent="Btvpl0j_3GmCOnRVqHgX-29" vertex="1">
          <mxGeometry x="7" y="30" width="173" height="30" as="geometry" />
        </mxCell>
        <mxCell id="Btvpl0j_3GmCOnRVqHgX-33" value="Peliculas" style="swimlane;whiteSpace=wrap;html=1;" parent="1" vertex="1">
          <mxGeometry x="-755" y="-1620" width="190" height="80" as="geometry" />
        </mxCell>
        <mxCell id="Btvpl0j_3GmCOnRVqHgX-68" value="&lt;ol&gt;&lt;li&gt;Duracion&lt;br&gt;&lt;/li&gt;&lt;/ol&gt;" style="text;strokeColor=none;fillColor=none;html=1;whiteSpace=wrap;verticalAlign=middle;overflow=hidden;" parent="Btvpl0j_3GmCOnRVqHgX-33" vertex="1">
          <mxGeometry x="-13" y="20" width="210" height="50" as="geometry" />
        </mxCell>
        <mxCell id="yggabCDSChldN73oCIkF-1" style="edgeStyle=orthogonalEdgeStyle;rounded=0;orthogonalLoop=1;jettySize=auto;html=1;exitX=0.5;exitY=0;exitDx=0;exitDy=0;" edge="1" parent="1" source="Btvpl0j_3GmCOnRVqHgX-41">
          <mxGeometry relative="1" as="geometry">
            <mxPoint x="-435" y="-1500" as="targetPoint" />
          </mxGeometry>
        </mxCell>
        <mxCell id="Btvpl0j_3GmCOnRVqHgX-41" value="Media" style="swimlane;whiteSpace=wrap;html=1;startSize=23;" parent="1" vertex="1">
          <mxGeometry x="-535" y="-1510" width="200" height="260" as="geometry" />
        </mxCell>
        <mxCell id="Btvpl0j_3GmCOnRVqHgX-81" value="&lt;ul&gt;&lt;li&gt;int: id&lt;/li&gt;&lt;li&gt;string: titulo&lt;br&gt;&lt;/li&gt;&lt;li&gt;float: puntuacion&lt;/li&gt;&lt;li&gt;string: genero&lt;/li&gt;&lt;li&gt;string: guion&lt;/li&gt;&lt;li&gt;string: pais&lt;/li&gt;&lt;li&gt;string: sinopsis&lt;/li&gt;&lt;li&gt;string: director&lt;/li&gt;&lt;li&gt;date: año_creacion&lt;br&gt;&lt;/li&gt;&lt;/ul&gt;&lt;div&gt;&lt;ul&gt;&lt;li&gt;foros()&lt;/li&gt;&lt;li&gt;Creadouser()&lt;/li&gt;&lt;li&gt;puntuadousers()&lt;/li&gt;&lt;li&gt;actors()&lt;br&gt;&lt;/li&gt;&lt;/ul&gt;&lt;/div&gt;" style="text;strokeColor=none;fillColor=none;html=1;whiteSpace=wrap;verticalAlign=middle;overflow=hidden;" parent="Btvpl0j_3GmCOnRVqHgX-41" vertex="1">
          <mxGeometry x="-1.5" y="10" width="198.5" height="250" as="geometry" />
        </mxCell>
        <mxCell id="Btvpl0j_3GmCOnRVqHgX-43" value="Foro" style="swimlane;whiteSpace=wrap;html=1;startSize=23;" parent="1" vertex="1">
          <mxGeometry x="-535" y="-1140" width="190" height="230" as="geometry" />
        </mxCell>
        <mxCell id="Btvpl0j_3GmCOnRVqHgX-94" value="&lt;ul&gt;&lt;li&gt;int: id&lt;br&gt;&lt;/li&gt;&lt;li&gt;string: titulo&lt;br&gt;&lt;/li&gt;&lt;li&gt;strng: pelicula_asociada&lt;br&gt;&lt;/li&gt;&lt;li&gt;date: fecha_creacion&lt;/li&gt;&lt;li&gt;date: fecha_modificacion&lt;/li&gt;&lt;/ul&gt;&lt;div&gt;&lt;br&gt;&lt;/div&gt;&lt;div&gt;&lt;br&gt;&lt;/div&gt;&lt;div&gt;&lt;ul&gt;&lt;li&gt;media()&lt;/li&gt;&lt;li&gt;publicacions()&lt;/li&gt;&lt;li&gt;user()&lt;br&gt;&lt;/li&gt;&lt;/ul&gt;&lt;/div&gt;" style="text;strokeColor=none;fillColor=none;html=1;whiteSpace=wrap;verticalAlign=middle;overflow=hidden;" parent="Btvpl0j_3GmCOnRVqHgX-43" vertex="1">
          <mxGeometry x="-1.5" width="190" height="230" as="geometry" />
        </mxCell>
        <mxCell id="Btvpl0j_3GmCOnRVqHgX-45" value="Actor" style="swimlane;whiteSpace=wrap;html=1;" parent="1" vertex="1">
          <mxGeometry x="-545" y="-480" width="190" height="210" as="geometry" />
        </mxCell>
        <mxCell id="Btvpl0j_3GmCOnRVqHgX-101" value="&lt;ul&gt;&lt;li&gt;int: id&lt;br&gt;&lt;/li&gt;&lt;li&gt;date: fecha_nacimiento&lt;br&gt;&lt;/li&gt;&lt;li&gt;string: biografia&lt;br&gt;&lt;/li&gt;&lt;li&gt;string: pais&lt;br&gt;&lt;/li&gt;&lt;li&gt;date: fecha_fallecimiento&lt;br&gt;&lt;/li&gt;&lt;li&gt;string: imagenActor&lt;/li&gt;&lt;/ul&gt;&lt;div&gt;&lt;ul&gt;&lt;li&gt;medias()&lt;br&gt;&lt;/li&gt;&lt;/ul&gt;&lt;/div&gt;" style="text;strokeColor=none;fillColor=none;html=1;whiteSpace=wrap;verticalAlign=middle;overflow=hidden;" parent="Btvpl0j_3GmCOnRVqHgX-45" vertex="1">
          <mxGeometry width="190" height="210" as="geometry" />
        </mxCell>
        <mxCell id="Btvpl0j_3GmCOnRVqHgX-47" value="User" style="swimlane;whiteSpace=wrap;html=1;" parent="1" vertex="1">
          <mxGeometry x="-545" y="-200" width="190" height="190" as="geometry" />
        </mxCell>
        <mxCell id="Btvpl0j_3GmCOnRVqHgX-110" value="&lt;ul&gt;&lt;li&gt;string: rol&lt;br&gt;&lt;/li&gt;&lt;li&gt;string: correo&lt;br&gt;&lt;/li&gt;&lt;/ul&gt;&lt;div&gt;&lt;br&gt;&lt;/div&gt;&lt;div&gt;&lt;ul&gt;&lt;li&gt;publicacions()&lt;/li&gt;&lt;li&gt;Creamedias()&lt;/li&gt;&lt;li&gt;Puntuamedias()&lt;/li&gt;&lt;li&gt;foros()&lt;/li&gt;&lt;li&gt;perfil()&lt;br&gt;&lt;/li&gt;&lt;/ul&gt;&lt;/div&gt;" style="text;strokeColor=none;fillColor=none;html=1;whiteSpace=wrap;verticalAlign=middle;overflow=hidden;" parent="Btvpl0j_3GmCOnRVqHgX-47" vertex="1">
          <mxGeometry width="190" height="190" as="geometry" />
        </mxCell>
        <mxCell id="Btvpl0j_3GmCOnRVqHgX-51" value="PublicacionController" style="swimlane;whiteSpace=wrap;html=1;" parent="1" vertex="1">
          <mxGeometry x="-785" y="-570" width="190" height="70" as="geometry" />
        </mxCell>
        <mxCell id="Btvpl0j_3GmCOnRVqHgX-52" value="- Metodos de crud" style="text;strokeColor=none;fillColor=none;align=left;verticalAlign=middle;spacingLeft=4;spacingRight=4;overflow=hidden;points=[[0,0.5],[1,0.5]];portConstraint=eastwest;rotatable=0;whiteSpace=wrap;html=1;" parent="Btvpl0j_3GmCOnRVqHgX-51" vertex="1">
          <mxGeometry x="7" y="30" width="173" height="30" as="geometry" />
        </mxCell>
        <mxCell id="Btvpl0j_3GmCOnRVqHgX-53" value="PublicacionApiController" style="swimlane;whiteSpace=wrap;html=1;" parent="1" vertex="1">
          <mxGeometry x="-285" y="-570" width="190" height="70" as="geometry" />
        </mxCell>
        <mxCell id="Btvpl0j_3GmCOnRVqHgX-54" value="- Metodos de crud" style="text;strokeColor=none;fillColor=none;align=left;verticalAlign=middle;spacingLeft=4;spacingRight=4;overflow=hidden;points=[[0,0.5],[1,0.5]];portConstraint=eastwest;rotatable=0;whiteSpace=wrap;html=1;" parent="Btvpl0j_3GmCOnRVqHgX-53" vertex="1">
          <mxGeometry x="7" y="30" width="173" height="30" as="geometry" />
        </mxCell>
        <mxCell id="Btvpl0j_3GmCOnRVqHgX-56" value="Publicacion" style="swimlane;whiteSpace=wrap;html=1;startSize=23;" parent="1" vertex="1">
          <mxGeometry x="-545" y="-830" width="190" height="210" as="geometry" />
        </mxCell>
        <mxCell id="Btvpl0j_3GmCOnRVqHgX-95" value="&lt;ul&gt;&lt;li&gt;int: id&lt;br&gt;&lt;/li&gt;&lt;li&gt;string: autor&lt;br&gt;&lt;/li&gt;&lt;li&gt;string: etiqueta&lt;br&gt;&lt;/li&gt;&lt;li&gt;string: titulo&lt;br&gt;&lt;/li&gt;&lt;li&gt;string: imagen&lt;br&gt;&lt;/li&gt;&lt;li&gt;date: fecha_modificacion&lt;br&gt;&lt;/li&gt;&lt;li&gt;date: fecha_creacion&lt;br&gt;&lt;/li&gt;&lt;li&gt;string: body&lt;/li&gt;&lt;/ul&gt;&lt;div&gt;&lt;ul&gt;&lt;li&gt;user()&lt;/li&gt;&lt;li&gt;foro()&lt;br&gt;&lt;/li&gt;&lt;/ul&gt;&lt;/div&gt;" style="text;strokeColor=none;fillColor=none;html=1;whiteSpace=wrap;verticalAlign=middle;overflow=hidden;" parent="Btvpl0j_3GmCOnRVqHgX-56" vertex="1">
          <mxGeometry y="-20" width="190" height="230" as="geometry" />
        </mxCell>
        <mxCell id="Btvpl0j_3GmCOnRVqHgX-79" value="Series" style="swimlane;whiteSpace=wrap;html=1;" parent="1" vertex="1">
          <mxGeometry x="-305" y="-1620" width="190" height="80" as="geometry" />
        </mxCell>
        <mxCell id="Btvpl0j_3GmCOnRVqHgX-80" value="&lt;ol&gt;&lt;li&gt;n_temporadas&lt;/li&gt;&lt;li&gt;temporadas&lt;br&gt;&lt;/li&gt;&lt;/ol&gt;" style="text;strokeColor=none;fillColor=none;html=1;whiteSpace=wrap;verticalAlign=middle;overflow=hidden;" parent="Btvpl0j_3GmCOnRVqHgX-79" vertex="1">
          <mxGeometry x="-13" y="20" width="210" height="50" as="geometry" />
        </mxCell>
        <mxCell id="Btvpl0j_3GmCOnRVqHgX-105" value="PerfilController" style="swimlane;whiteSpace=wrap;html=1;" parent="1" vertex="1">
          <mxGeometry x="-795" y="480" width="190" height="70" as="geometry" />
        </mxCell>
        <mxCell id="Btvpl0j_3GmCOnRVqHgX-106" value="- Metodos de crud" style="text;strokeColor=none;fillColor=none;align=left;verticalAlign=middle;spacingLeft=4;spacingRight=4;overflow=hidden;points=[[0,0.5],[1,0.5]];portConstraint=eastwest;rotatable=0;whiteSpace=wrap;html=1;" parent="Btvpl0j_3GmCOnRVqHgX-105" vertex="1">
          <mxGeometry x="7" y="30" width="173" height="30" as="geometry" />
        </mxCell>
        <mxCell id="Btvpl0j_3GmCOnRVqHgX-107" value="PerfilApiController" style="swimlane;whiteSpace=wrap;html=1;" parent="1" vertex="1">
          <mxGeometry x="-295" y="480" width="190" height="70" as="geometry" />
        </mxCell>
        <mxCell id="Btvpl0j_3GmCOnRVqHgX-108" value="- Metodos de crud" style="text;strokeColor=none;fillColor=none;align=left;verticalAlign=middle;spacingLeft=4;spacingRight=4;overflow=hidden;points=[[0,0.5],[1,0.5]];portConstraint=eastwest;rotatable=0;whiteSpace=wrap;html=1;" parent="Btvpl0j_3GmCOnRVqHgX-107" vertex="1">
          <mxGeometry x="7" y="30" width="173" height="30" as="geometry" />
        </mxCell>
        <mxCell id="Btvpl0j_3GmCOnRVqHgX-109" value="Perfil" style="swimlane;whiteSpace=wrap;html=1;" parent="1" vertex="1">
          <mxGeometry x="-545" y="280" width="190" height="200" as="geometry" />
        </mxCell>
        <mxCell id="Btvpl0j_3GmCOnRVqHgX-112" value="&lt;ul&gt;&lt;li&gt;int: id&lt;br&gt;&lt;/li&gt;&lt;li&gt;string: descripcion&lt;br&gt;&lt;/li&gt;&lt;li&gt;string: username&lt;/li&gt;&lt;li&gt;string: instagram&lt;/li&gt;&lt;li&gt;string: twitter&lt;/li&gt;&lt;/ul&gt;&lt;div&gt;&lt;ul&gt;&lt;li&gt;&lt;span style=&quot;white-space: pre;&quot;&gt;user()&#x9;&lt;/span&gt;&lt;/li&gt;&lt;/ul&gt;&lt;/div&gt;" style="text;strokeColor=none;fillColor=none;html=1;whiteSpace=wrap;verticalAlign=middle;overflow=hidden;" parent="Btvpl0j_3GmCOnRVqHgX-109" vertex="1">
          <mxGeometry x="-3" y="20" width="190" height="180" as="geometry" />
        </mxCell>
        <mxCell id="Btvpl0j_3GmCOnRVqHgX-111" value="LoginApiController" style="swimlane;whiteSpace=wrap;html=1;" parent="1" vertex="1">
          <mxGeometry x="-545" y="60" width="190" height="160" as="geometry" />
        </mxCell>
        <mxCell id="Btvpl0j_3GmCOnRVqHgX-114" value="&lt;ul&gt;&lt;li&gt;&amp;nbsp;login()&lt;/li&gt;&lt;/ul&gt;" style="text;strokeColor=none;fillColor=none;align=left;verticalAlign=middle;spacingLeft=4;spacingRight=4;overflow=hidden;points=[[0,0.5],[1,0.5]];portConstraint=eastwest;rotatable=0;whiteSpace=wrap;html=1;" parent="Btvpl0j_3GmCOnRVqHgX-111" vertex="1">
          <mxGeometry x="5.5" y="30" width="173" height="30" as="geometry" />
        </mxCell>
        <mxCell id="Btvpl0j_3GmCOnRVqHgX-123" value="AdminMiddlewar" style="swimlane;whiteSpace=wrap;html=1;" parent="1" vertex="1">
          <mxGeometry x="-805" y="-1754" width="145" height="70" as="geometry" />
        </mxCell>
        <mxCell id="Btvpl0j_3GmCOnRVqHgX-125" value="handle()" style="text;html=1;align=center;verticalAlign=middle;whiteSpace=wrap;rounded=0;" parent="Btvpl0j_3GmCOnRVqHgX-123" vertex="1">
          <mxGeometry x="-20" y="15" width="185" height="55" as="geometry" />
        </mxCell>
        <mxCell id="Btvpl0j_3GmCOnRVqHgX-132" value="auth" style="swimlane;whiteSpace=wrap;html=1;" parent="1" vertex="1">
          <mxGeometry x="-605" y="-1754" width="145" height="70" as="geometry" />
        </mxCell>
        <mxCell id="Btvpl0j_3GmCOnRVqHgX-133" value="handle()" style="text;html=1;align=center;verticalAlign=middle;whiteSpace=wrap;rounded=0;" parent="Btvpl0j_3GmCOnRVqHgX-132" vertex="1">
          <mxGeometry x="-20" y="15" width="185" height="55" as="geometry" />
        </mxCell>
        <mxCell id="Btvpl0j_3GmCOnRVqHgX-134" value="idiomaMiddleware" style="swimlane;whiteSpace=wrap;html=1;" parent="1" vertex="1">
          <mxGeometry x="-408" y="-1754" width="145" height="70" as="geometry" />
        </mxCell>
        <mxCell id="Btvpl0j_3GmCOnRVqHgX-135" value="handle()" style="text;html=1;align=center;verticalAlign=middle;whiteSpace=wrap;rounded=0;" parent="Btvpl0j_3GmCOnRVqHgX-134" vertex="1">
          <mxGeometry x="-20" y="15" width="185" height="55" as="geometry" />
        </mxCell>
        <mxCell id="Btvpl0j_3GmCOnRVqHgX-144" value="apiMiddleware" style="swimlane;whiteSpace=wrap;html=1;" parent="1" vertex="1">
          <mxGeometry x="-220" y="-1754" width="145" height="70" as="geometry" />
        </mxCell>
        <mxCell id="Btvpl0j_3GmCOnRVqHgX-145" value="handle()" style="text;html=1;align=center;verticalAlign=middle;whiteSpace=wrap;rounded=0;" parent="Btvpl0j_3GmCOnRVqHgX-144" vertex="1">
          <mxGeometry x="-20" y="15" width="185" height="55" as="geometry" />
        </mxCell>
        <mxCell id="Btvpl0j_3GmCOnRVqHgX-150" value="" style="endArrow=none;html=1;rounded=0;entryX=0;entryY=0.5;entryDx=0;entryDy=0;" parent="1" target="Btvpl0j_3GmCOnRVqHgX-110" edge="1">
          <mxGeometry width="50" height="50" relative="1" as="geometry">
            <mxPoint x="-690" y="-40" as="sourcePoint" />
            <mxPoint x="-640" y="-90" as="targetPoint" />
          </mxGeometry>
        </mxCell>
        <mxCell id="Btvpl0j_3GmCOnRVqHgX-151" value="" style="endArrow=none;html=1;rounded=0;entryX=1.024;entryY=0.543;entryDx=0;entryDy=0;entryPerimeter=0;" parent="1" target="Btvpl0j_3GmCOnRVqHgX-110" edge="1">
          <mxGeometry width="50" height="50" relative="1" as="geometry">
            <mxPoint x="-190" y="-40" as="sourcePoint" />
            <mxPoint x="-45" y="-105" as="targetPoint" />
          </mxGeometry>
        </mxCell>
        <mxCell id="Btvpl0j_3GmCOnRVqHgX-152" value="" style="endArrow=none;html=1;rounded=0;entryX=0.5;entryY=1;entryDx=0;entryDy=0;exitX=0.5;exitY=0;exitDx=0;exitDy=0;" parent="1" source="Btvpl0j_3GmCOnRVqHgX-111" target="Btvpl0j_3GmCOnRVqHgX-110" edge="1">
          <mxGeometry width="50" height="50" relative="1" as="geometry">
            <mxPoint x="-670" y="-20" as="sourcePoint" />
            <mxPoint x="-525" y="-85" as="targetPoint" />
          </mxGeometry>
        </mxCell>
        <mxCell id="Btvpl0j_3GmCOnRVqHgX-153" value="" style="endArrow=none;html=1;rounded=0;entryX=1.005;entryY=0.542;entryDx=0;entryDy=0;entryPerimeter=0;" parent="1" target="Btvpl0j_3GmCOnRVqHgX-101" edge="1">
          <mxGeometry width="50" height="50" relative="1" as="geometry">
            <mxPoint x="-200" y="-250" as="sourcePoint" />
            <mxPoint x="-55" y="-315" as="targetPoint" />
          </mxGeometry>
        </mxCell>
        <mxCell id="Btvpl0j_3GmCOnRVqHgX-154" value="" style="endArrow=none;html=1;rounded=0;entryX=-0.01;entryY=0.564;entryDx=0;entryDy=0;entryPerimeter=0;" parent="1" target="Btvpl0j_3GmCOnRVqHgX-101" edge="1">
          <mxGeometry width="50" height="50" relative="1" as="geometry">
            <mxPoint x="-700" y="-250" as="sourcePoint" />
            <mxPoint x="-555" y="-315" as="targetPoint" />
          </mxGeometry>
        </mxCell>
        <mxCell id="Btvpl0j_3GmCOnRVqHgX-155" value="" style="endArrow=none;html=1;rounded=0;entryX=1;entryY=0.5;entryDx=0;entryDy=0;" parent="1" target="Btvpl0j_3GmCOnRVqHgX-109" edge="1">
          <mxGeometry width="50" height="50" relative="1" as="geometry">
            <mxPoint x="-200" y="480" as="sourcePoint" />
            <mxPoint x="-360" y="423" as="targetPoint" />
          </mxGeometry>
        </mxCell>
        <mxCell id="Btvpl0j_3GmCOnRVqHgX-156" value="" style="endArrow=none;html=1;rounded=0;entryX=0.5;entryY=0;entryDx=0;entryDy=0;" parent="1" target="Btvpl0j_3GmCOnRVqHgX-105" edge="1">
          <mxGeometry width="50" height="50" relative="1" as="geometry">
            <mxPoint x="-545" y="397" as="sourcePoint" />
            <mxPoint x="-705" y="340" as="targetPoint" />
          </mxGeometry>
        </mxCell>
        <mxCell id="Btvpl0j_3GmCOnRVqHgX-157" value="" style="endArrow=none;html=1;rounded=0;entryX=1.026;entryY=0.565;entryDx=0;entryDy=0;entryPerimeter=0;" parent="1" target="Btvpl0j_3GmCOnRVqHgX-95" edge="1">
          <mxGeometry width="50" height="50" relative="1" as="geometry">
            <mxPoint x="-185" y="-570" as="sourcePoint" />
            <mxPoint x="-345" y="-627" as="targetPoint" />
          </mxGeometry>
        </mxCell>
        <mxCell id="Btvpl0j_3GmCOnRVqHgX-158" value="" style="endArrow=none;html=1;rounded=0;entryX=0.5;entryY=0;entryDx=0;entryDy=0;" parent="1" target="Btvpl0j_3GmCOnRVqHgX-51" edge="1">
          <mxGeometry width="50" height="50" relative="1" as="geometry">
            <mxPoint x="-545" y="-713" as="sourcePoint" />
            <mxPoint x="-705" y="-770" as="targetPoint" />
          </mxGeometry>
        </mxCell>
        <mxCell id="Btvpl0j_3GmCOnRVqHgX-159" value="" style="endArrow=none;html=1;rounded=0;entryX=1;entryY=0.5;entryDx=0;entryDy=0;" parent="1" target="Btvpl0j_3GmCOnRVqHgX-94" edge="1">
          <mxGeometry width="50" height="50" relative="1" as="geometry">
            <mxPoint x="-170" y="-920" as="sourcePoint" />
            <mxPoint x="-335" y="-1070" as="targetPoint" />
          </mxGeometry>
        </mxCell>
        <mxCell id="Btvpl0j_3GmCOnRVqHgX-160" value="" style="endArrow=none;html=1;rounded=0;entryX=0.5;entryY=0;entryDx=0;entryDy=0;" parent="1" target="Btvpl0j_3GmCOnRVqHgX-13" edge="1">
          <mxGeometry width="50" height="50" relative="1" as="geometry">
            <mxPoint x="-535" y="-1010" as="sourcePoint" />
            <mxPoint x="-700" y="-1160" as="targetPoint" />
          </mxGeometry>
        </mxCell>
        <mxCell id="Btvpl0j_3GmCOnRVqHgX-161" value="" style="endArrow=none;html=1;rounded=0;entryX=1;entryY=0.5;entryDx=0;entryDy=0;" parent="1" target="Btvpl0j_3GmCOnRVqHgX-81" edge="1">
          <mxGeometry width="50" height="50" relative="1" as="geometry">
            <mxPoint x="-170" y="-1250" as="sourcePoint" />
            <mxPoint x="-330" y="-1375" as="targetPoint" />
          </mxGeometry>
        </mxCell>
        <mxCell id="Btvpl0j_3GmCOnRVqHgX-162" value="" style="endArrow=none;html=1;rounded=0;entryX=1;entryY=0.5;entryDx=0;entryDy=0;exitX=1.008;exitY=0.462;exitDx=0;exitDy=0;exitPerimeter=0;" parent="1" source="Btvpl0j_3GmCOnRVqHgX-81" edge="1">
          <mxGeometry width="50" height="50" relative="1" as="geometry">
            <mxPoint x="-42" y="-1415" as="sourcePoint" />
            <mxPoint x="-210" y="-1540" as="targetPoint" />
          </mxGeometry>
        </mxCell>
        <mxCell id="Btvpl0j_3GmCOnRVqHgX-163" value="" style="endArrow=none;html=1;rounded=0;entryX=0.5;entryY=1;entryDx=0;entryDy=0;" parent="1" target="Btvpl0j_3GmCOnRVqHgX-33" edge="1">
          <mxGeometry width="50" height="50" relative="1" as="geometry">
            <mxPoint x="-535" y="-1365" as="sourcePoint" />
            <mxPoint x="-703" y="-1490" as="targetPoint" />
          </mxGeometry>
        </mxCell>
        <mxCell id="Btvpl0j_3GmCOnRVqHgX-164" value="" style="endArrow=none;html=1;rounded=0;entryX=0.5;entryY=0;entryDx=0;entryDy=0;" parent="1" target="Btvpl0j_3GmCOnRVqHgX-11" edge="1">
          <mxGeometry width="50" height="50" relative="1" as="geometry">
            <mxPoint x="-532" y="-1365" as="sourcePoint" />
            <mxPoint x="-700" y="-1490" as="targetPoint" />
          </mxGeometry>
        </mxCell>
      </root>
    </mxGraphModel>
  </diagram>
</mxfile>
